<?xml version="1.0" encoding="UTF-8" standalone="no"?>
<!-- Generator: Adobe Illustrator 16.0.4, SVG Export Plug-In . SVG Version: 6.00 Build 0)  -->

<svg
   xmlns:dc="http://purl.org/dc/elements/1.1/"
   xmlns:cc="http://creativecommons.org/ns#"
   xmlns:rdf="http://www.w3.org/1999/02/22-rdf-syntax-ns#"
   xmlns:svg="http://www.w3.org/2000/svg"
   xmlns="http://www.w3.org/2000/svg"
   xmlns:sodipodi="http://sodipodi.sourceforge.net/DTD/sodipodi-0.dtd"
   xmlns:inkscape="http://www.inkscape.org/namespaces/inkscape"
   version="1.1"
   id="Layer_1"
   x="0px"
   y="0px"
   width="24px"
   height="24px"
   viewBox="0 0 24 24"
   enable-background="new 0 0 24 24"
   xml:space="preserve"
   inkscape:version="0.48.4 r9939"
   sodipodi:docname="pressure.svg"><metadata
     id="metadata2993"><rdf:RDF><cc:Work
         rdf:about=""><dc:format>image/svg+xml</dc:format><dc:type
           rdf:resource="http://purl.org/dc/dcmitype/StillImage" /></cc:Work></rdf:RDF></metadata><defs
     id="defs2991" /><sodipodi:namedview
     pagecolor="#ffffff"
     bordercolor="#666666"
     borderopacity="1"
     objecttolerance="10"
     gridtolerance="10"
     guidetolerance="10"
     inkscape:pageopacity="0"
     inkscape:pageshadow="2"
     inkscape:window-width="821"
     inkscape:window-height="480"
     id="namedview2989"
     showgrid="false"
     inkscape:zoom="9.8333333"
     inkscape:cx="12"
     inkscape:cy="12"
     inkscape:window-x="0"
     inkscape:window-y="27"
     inkscape:window-maximized="0"
     inkscape:current-layer="Layer_1" /><path
     d="M15.6,4.4l-2.107,3.515C13.493,7.943,13.5,7.971,13.5,8c0,0.829-0.672,1.5-1.5,1.5c-0.829,0-1.5-0.671-1.5-1.5  s0.671-1.5,1.5-1.5c0.029,0,0.057,0.007,0.086,0.009L15.6,4.4z M0,24h24v-2H0V24z M24,18v2H13v-4.068C12.672,15.973,12.339,16,12,16  s-0.672-0.027-1-0.068V20H0v-2h9v-2.589C6.072,14.223,4,11.35,4,8c0-4.411,3.589-8,8-8s8,3.589,8,8c0,3.35-2.072,6.223-5,7.411V18  H24z M12,14c3.309,0,6-2.691,6-6s-2.691-6-6-6C8.691,2,6,4.691,6,8S8.691,14,12,14z"
     id="path2987"
     style="fill:#ffffff;opacity:0.8" /></svg>