<?xml version="1.0" encoding="UTF-8" standalone="no"?>
<!-- Generator: Adobe Illustrator 16.0.0, SVG Export Plug-In . SVG Version: 6.00 Build 0)  -->

<svg
   xmlns:dc="http://purl.org/dc/elements/1.1/"
   xmlns:cc="http://creativecommons.org/ns#"
   xmlns:rdf="http://www.w3.org/1999/02/22-rdf-syntax-ns#"
   xmlns:svg="http://www.w3.org/2000/svg"
   xmlns="http://www.w3.org/2000/svg"
   xmlns:sodipodi="http://sodipodi.sourceforge.net/DTD/sodipodi-0.dtd"
   xmlns:inkscape="http://www.inkscape.org/namespaces/inkscape"
   version="1.1"
   id="Layer_1"
   x="0px"
   y="0px"
   width="48px"
   height="48px"
   viewBox="0 0 48 48"
   enable-background="new 0 0 48 48"
   xml:space="preserve"
   inkscape:version="0.48.4 r9939"
   sodipodi:docname="webcam9.svg"><metadata
     id="metadata13"><rdf:RDF><cc:Work
         rdf:about=""><dc:format>image/svg+xml</dc:format><dc:type
           rdf:resource="http://purl.org/dc/dcmitype/StillImage" /></cc:Work></rdf:RDF></metadata><defs
     id="defs11" /><sodipodi:namedview
     pagecolor="#ffffff"
     bordercolor="#666666"
     borderopacity="1"
     objecttolerance="10"
     gridtolerance="10"
     guidetolerance="10"
     inkscape:pageopacity="0"
     inkscape:pageshadow="2"
     inkscape:window-width="1600"
     inkscape:window-height="837"
     id="namedview9"
     showgrid="false"
     inkscape:zoom="4.9166667"
     inkscape:cx="24.40678"
     inkscape:cy="24"
     inkscape:window-x="0"
     inkscape:window-y="27"
     inkscape:window-maximized="1"
     inkscape:current-layer="Layer_1" /><g
     id="g3"
     style="fill:#ffffff;opacity:0.85"><path
       d="M34.639,38.396C40.268,34.795,44,28.489,44,21.311c0-11.192-9.073-20.267-20.266-20.267S3.468,10.118,3.468,21.311   c0,7.179,3.732,13.484,9.361,17.085l-3.537,4.232c-1.437,1.724-0.211,4.328,2.033,4.328h24.817c2.244,0,3.469-2.604,2.033-4.328   L34.639,38.396z M23.734,32.644c-6.259,0-11.333-5.074-11.333-11.333S17.475,9.979,23.734,9.979s11.333,5.073,11.333,11.332   S29.993,32.644,23.734,32.644z"
       id="path5"
       style="fill:#ffffff" /><path
       d="M23.734,14.425c-0.914,0-1.784,0.183-2.583,0.506c1.197,1.963,0.299,5.22-2.71,5.22c-0.548,0-1.025-0.111-1.434-0.301   c-0.102,0.472-0.159,0.959-0.159,1.461c0,3.803,3.083,6.886,6.885,6.886s6.885-3.083,6.885-6.886S27.537,14.425,23.734,14.425z"
       id="path7"
       style="fill:#ffffff" /></g></svg>